<?xml version="1.0" encoding="utf-8" ?>
<svg xmlns="http://www.w3.org/2000/svg" width="305" height="312">
	<path d="M66.7808 51.414C63.7113 50.3862 60.7975 48.5471 57.8698 47.1393C49.0993 42.9221 40.5006 38.3811 31.809 34.0137C26.0189 31.1043 20.2316 28.1887 14.4379 25.2863C12.1734 24.1518 9.67409 23.3112 7.5475 21.9336C5.93274 20.8875 4.64332 19.2687 3.77988 17.5571C2.70266 15.4217 2.75135 12.9507 3.50578 10.7327C4.4074 8.08186 6.13806 6.57181 8.59789 5.37827C10.9639 4.23024 13.0197 4.29471 15.4759 5.16895C20.6374 7.00617 25.651 9.91133 30.521 12.4282C35.6486 15.0781 40.8473 17.601 46.0113 20.1799C52.1226 23.2318 58.2095 26.3343 64.3542 29.3186C69.6281 31.88 75.1307 34.2794 80.0955 37.4135C81.1772 38.0964 82.4568 39.3772 83.0034 40.5452C83.7753 42.1942 83.9173 43.6469 84.3067 45.3765C85.1539 49.139 85.6346 52.9201 86.3645 56.6951C87.4469 62.2929 88.5043 67.8453 89.4361 73.4715C89.747 75.3492 90.2702 77.2031 90.4855 79.0936C94.797 79.0383 99.1217 79.2114 103.436 79.2192C114.637 79.2393 125.838 79.22 137.038 79.2017C169.145 79.1495 201.253 78.9631 233.36 79.184C247.29 79.2798 261.222 79.2353 275.152 79.2367C279.421 79.2371 283.691 79.2374 287.96 79.2371C290.218 79.237 292.566 79.0998 294.814 79.269C297.151 79.4451 299.509 80.1703 301.208 81.8417C302.844 83.4514 303.768 85.7056 303.771 88C303.774 89.6236 303.32 90.9963 302.98 92.5524C301.793 97.9894 299.671 103.342 298.086 108.687C294.335 121.344 290.616 134.022 286.904 146.686C281.983 163.474 277.109 180.275 272.087 197.033C270.383 202.72 268.909 208.542 266.995 214.157C266.516 215.561 265.899 216.741 264.836 217.789C263.353 219.251 261.435 220.336 259.366 220.652C256.544 221.083 253.2 220.767 250.33 220.752C244.607 220.722 238.885 220.722 233.162 220.721C202.995 220.711 172.83 220.571 142.663 220.621C134.223 220.635 125.782 220.676 117.341 220.657C112.917 220.647 108.18 220.268 103.796 220.737C101.751 220.956 99.9929 222.275 98.1991 223.15C94.4689 224.972 90.7832 229.409 89.5223 233.307C88.5352 236.359 88.5285 239.147 90.0134 242.053C91.7091 245.372 95.2619 247.245 98.6779 248.33C103.721 249.931 109.263 249.756 114.5 249.687C118.968 249.629 123.437 249.573 127.906 249.527C136.888 249.435 145.871 249.403 154.853 249.329C181.466 249.109 208.083 248.868 234.696 248.776C239.199 248.76 243.709 248.802 248.21 248.711C251.224 248.651 254.234 248.539 257.25 248.555C258.682 248.562 260.38 248.486 261.781 248.792C264.235 249.326 266.534 251.062 267.732 253.268C268.952 255.513 269.202 258.209 268.411 260.623C267.512 263.366 265.981 265.025 263.401 266.325L261.492 267.25L261.375 267.665C265.604 270.726 269.186 277.083 270.031 282.216C271.152 289.016 270.093 295.799 265.982 301.458C261.969 306.982 256.614 310.205 249.997 311.736C248.537 312.402 243.259 312.271 241.736 311.728C241.401 311.888 241.089 312 240.716 312.003C209.452 312.319 178.156 312.04 146.89 312.028C139.414 312.025 131.939 312.021 124.464 312.014C122.233 312.012 120.002 312.01 117.771 312.006C116.512 312.005 115.189 312.145 113.981 311.747C112.56 312.379 107.492 312.272 106.03 311.727C103.902 311.128 101.879 310.388 99.8759 309.456C92.8959 306.209 88.9566 301.043 86.3928 293.926C85.1043 289.363 85.1 284.769 86.2267 280.165C87.4283 276.758 88.9172 273.598 91.327 270.86C92.4723 269.558 93.8281 268.451 94.9469 267.125L94.7086 266.625C91.0575 266.186 86.5735 263.692 83.549 261.742C78.6939 258.611 74.5757 253.986 72.4556 248.588C71.6851 246.626 71.2707 244.559 70.8259 242.506C70.1525 238.847 70.4482 234.891 70.8641 231.22C71.5973 227.903 72.4043 224.735 74.0511 221.727C77.3341 215.73 82.4884 211.112 88.2036 207.491C90.1226 206.275 92.2882 204.967 94.4786 204.33L83.7062 145.037L81.2378 130.867L66.7808 51.414ZM93.8469 97.7112L112.68 202.208L251.497 202.285C251.606 199.532 252.965 196.343 253.732 193.669C254.881 189.664 255.839 185.365 257.314 181.477L260.907 169.265L267.299 147.685L271.143 134.74L273.124 128.234L278.619 109.249L282.124 97.872L93.8469 97.7112ZM126.775 268.097C130.374 271.38 132.73 275.51 133.975 280.249C135.667 286.686 135.059 293.906 131.656 299.689C127.563 306.644 121.535 309.777 113.981 311.747C115.189 312.145 116.512 312.005 117.771 312.006C120.002 312.01 122.233 312.012 124.464 312.014C131.939 312.021 139.414 312.025 146.89 312.028C178.156 312.04 209.452 312.319 240.716 312.003C241.089 312 241.401 311.888 241.736 311.728C236.765 310.468 232.086 308.483 228.434 304.772C223.315 299.571 220.931 293.428 221.006 286.206C221.083 278.74 224.496 272.594 229.749 267.473C205.701 267.902 181.611 267.769 157.556 267.958C150.963 268.009 144.37 268.096 137.777 268.191C134.171 268.243 130.326 268.65 126.775 268.097ZM278.619 109.249L273.124 128.234L273.561 128.366L273.832 128.079L274 128.375L274.316 128.125L279.306 111C278.873 110.514 278.775 110.092 278.66 109.475L278.619 109.249ZM81.2378 130.867L83.7062 145.037C83.7304 144.482 83.7003 143.862 83.8995 143.341C84.2748 142.36 84.077 141.154 84.0142 140.125L83.6706 139.874C83.9811 138.49 83.3301 135.55 82.9026 134.164C82.3881 132.495 82.2512 130.39 81.875 128.627L81.2378 130.867ZM271.143 134.74L267.299 147.685C267.581 148.165 267.654 148.517 267.686 149.073L267.694 149.25L267.891 149.405L270.253 141.609C270.451 141.067 270.556 140.639 270.594 140.059L270.604 139.875L270.854 139.861C270.982 139.34 271.067 138.571 271.324 138.107L271.489 137.807C271.654 137.435 271.705 136.775 271.539 136.4C271.309 135.878 271.246 135.302 271.143 134.74ZM257.314 181.477C257.621 181.968 257.661 182.433 257.736 183L257.348 183.462L257.562 184.138C258.414 181.608 259.177 179.058 259.957 176.505C260.199 175.713 260.331 174.589 260.701 173.893C261.115 173.113 261.627 171.359 261.749 170.499C261.799 170.142 261.15 169.549 260.907 169.265L257.314 181.477ZM86.3928 293.926L87.1225 293.5C87.2164 291.346 86.5398 289.124 86.5266 286.906C86.5203 285.837 86.9113 283.285 86.4652 282.478C86.1352 281.881 86.2427 280.853 86.2267 280.165C85.1 284.769 85.1043 289.363 86.3928 293.926ZM70.8641 231.22C70.4482 234.891 70.1525 238.847 70.8259 242.506L71.0763 241.875L71.5 241.755C71.9963 240.374 71.7147 234.144 71.4785 232.501L71.125 232.444L70.8641 231.22Z"/>
	<path d="M70.8641 231.22L71.125 232.444L71.4785 232.501C71.7147 234.144 71.9963 240.374 71.5 241.755L71.0763 241.875L70.8259 242.506C70.1525 238.847 70.4482 234.891 70.8641 231.22Z"/>
	<path d="M86.3928 293.926C85.1043 289.363 85.1 284.769 86.2267 280.165C86.2427 280.853 86.1352 281.881 86.4652 282.478C86.9113 283.285 86.5203 285.837 86.5266 286.906C86.5398 289.124 87.2164 291.346 87.1225 293.5L86.3928 293.926Z"/>
	<path d="M257.314 181.477L260.907 169.265C261.15 169.549 261.799 170.142 261.749 170.499C261.627 171.359 261.115 173.113 260.701 173.893C260.331 174.589 260.199 175.713 259.957 176.505C259.177 179.058 258.414 181.608 257.562 184.138L257.348 183.462L257.736 183C257.661 182.433 257.621 181.968 257.314 181.477Z"/>
	<path d="M271.143 134.74C271.246 135.302 271.309 135.878 271.539 136.4C271.705 136.775 271.654 137.435 271.489 137.807L271.324 138.107C271.067 138.571 270.982 139.34 270.854 139.861L270.604 139.875L270.594 140.059C270.556 140.639 270.451 141.067 270.253 141.609L267.891 149.405L267.694 149.25L267.686 149.073C267.654 148.517 267.581 148.165 267.299 147.685L271.143 134.74Z"/>
	<path d="M81.2378 130.867L81.875 128.627C82.2512 130.39 82.3881 132.495 82.9026 134.164C83.3301 135.55 83.9811 138.49 83.6706 139.874L84.0142 140.125C84.077 141.154 84.2748 142.36 83.8995 143.341C83.7003 143.862 83.7304 144.482 83.7062 145.037L81.2378 130.867Z"/>
	<path d="M278.619 109.249L278.66 109.475C278.775 110.092 278.873 110.514 279.306 111L274.316 128.125L274 128.375L273.832 128.079L273.561 128.366L273.124 128.234L278.619 109.249Z"/>
</svg>
