<?xml version="1.0" encoding="utf-8"?>
<!-- Generator: Adobe Illustrator 28.2.0, SVG Export Plug-In . SVG Version: 6.00 Build 0)  -->
<svg version="1.1" id="Capa_1" xmlns="http://www.w3.org/2000/svg" xmlns:xlink="http://www.w3.org/1999/xlink" x="0px" y="0px"
	 viewBox="0 0 479.2 589.8" style="enable-background:new 0 0 479.2 589.8;" xml:space="preserve">
<style type="text/css">
	.st0{fill:#36B189;}
	.st1{fill:#099F77;}
	.st2{fill:url(#SVGID_1_);}
	.st3{fill:url(#SVGID_00000129199236554211344750000006891815741967477430_);}
	.st4{fill:#AD1255;}
	.st5{fill:#783189;}
	.st6{fill:#010101;}
	.st7{fill:#227FC3;}
	.st8{fill:url(#SVGID_00000119115288504584702320000016449653486833036168_);}
	.st9{fill:url(#SVGID_00000043415765625901743590000013306855402910194304_);}
	.st10{fill:url(#SVGID_00000093159968600279757270000018045892779901809337_);}
	.st11{fill:url(#SVGID_00000082357200970188833180000001439485135242862745_);}
	.st12{fill:url(#SVGID_00000152248028955710592970000013464434509698225054_);}
	.st13{fill:url(#SVGID_00000006693249756613503350000006939320963213108653_);}
	.st14{fill:url(#SVGID_00000147197104486159906240000004657061619776691871_);}
	.st15{fill:url(#SVGID_00000063599410917953079420000010474920536567719835_);}
	.st16{fill:url(#SVGID_00000042712837247818660880000004728911784537541040_);}
	.st17{fill:#E71D7F;}
	.st18{fill:url(#SVGID_00000101805214274150905590000004795573112634859140_);}
</style>
<path class="st0" d="M105.8,348.6c1.7,0.5,3.2,1.7,4.6,2.6c0.8,0.5,1.7,1,2.5,1.6c2.6,1.4,5.1,3.1,7.6,4.6l9.6,5.8
	c1.5,0.9,3.2,2.5,4.8,3.1v0.3c-1.2,0.7-2.4,1.2-3.6,1.8l-17.6,8.4c-2.4,1.2-5.2,3-7.8,3.7c-0.2-1.1-0.1-2.4-0.1-3.6v-6.4
	L105.8,348.6L105.8,348.6z"/>
<path class="st1" d="M131.3,408.2l-25.1-15.7v-3.6l1.5,0.9c1.5,1,3.3,2.5,5,2.8l0.2,0c2.6,1.4,5.1,3.1,7.6,4.6l9.6,5.8
	c1.5,0.9,3.2,2.5,4.8,3.1v0.3C133.7,407.2,132.5,407.6,131.3,408.2L131.3,408.2z"/>
<linearGradient id="SVGID_1_" gradientUnits="userSpaceOnUse" x1="364.2351" y1="250.8995" x2="349.7733" y2="220.3675" gradientTransform="matrix(1 0 0 -1 0 589.89)">
	<stop  offset="0" style="stop-color:#921634"/>
	<stop  offset="0.57" style="stop-color:#E71D83"/>
	<stop  offset="1" style="stop-color:#E71D83"/>
</linearGradient>
<path class="st2" d="M338.5,367.1l-0.1-25.5l30.6,0l0,10.8l0,1.5l-0.1,27.4"/>
<linearGradient id="SVGID_00000074444492059378371230000015281741940732405689_" gradientUnits="userSpaceOnUse" x1="106.2134" y1="243.2702" x2="136.2456" y2="243.2702">
	<stop  offset="0" style="stop-color:#FBE81A"/>
	<stop  offset="0.5112" style="stop-color:#FDE00D"/>
	<stop  offset="1" style="stop-color:#FFD900"/>
	<stop  offset="1" style="stop-color:#FBE81A"/>
</linearGradient>
<path style="fill:url(#SVGID_00000074444492059378371230000015281741940732405689_);" d="M106.2,211c1.8,0.6,3.4,1.8,5,2.8l8.2,5.1
	c4.4,2.7,9.2,5.2,13.3,8.3c1.2,0.9,2.2,1.5,3.6,2l-0.1,46.4h-29.9C106.3,275.5,106.2,211,106.2,211z"/>
<path class="st4" d="M338.2,243.9l0.3,0c0,1.6-0.3,9.6,0.2,10.4l0.3-0.5l0.4,0V250l0.4,0.1l0,0.4l-0.2,25.1l-1.2-0.1
	c-0.1-0.1-0.2-0.2-0.3-0.4c-0.1-0.5,0-1.4,0-2v-5L338.2,243.9L338.2,243.9z"/>
<path class="st5" d="M239.1,428.1c0.6-0.7,1.6-1.2,2.4-1.6l4.6-2.8l24.3-14.8l32.6-19.7l22.6-13.6c4-2.4,8-4.9,12.1-7
	c-1.7,2.1-4.1,3.6-6.3,5.1l-6.8,4.6l-13.1,9l-16,11.3l-38.6,26.6l-12.5,8.5c-1.7,1.1-3.6,2.2-5.3,3.4
	C239.2,434.2,239.6,430.8,239.1,428.1L239.1,428.1z"/>
<path class="st6" d="M84.3,341.5l16.4,0l0,42.2l136.5,80.9c1.2-0.3,2.8-1.4,3.9-2.1l7.5-4.5l34.3-20.4l58.7-34.4l32.5-18.9l0-43
	h16.8l-0.1,18.7l0,33l-153.5,90.7L84.3,393C84.3,393,84.3,341.5,84.3,341.5z"/>
<path class="st6" d="M237.5,105.9l153.4,91.2l-0.1,78.5l-16.9,0v-68.8c-1.1-0.9-2.7-1.5-4-2.3l-8-4.8l-34.4-20.7l-89.7-53.6
	c-2,0.8-4,2.1-5.9,3.2l-8.7,5.2l-30.6,18.3l-61.2,36.5L101.2,207v68.4l-17.3,0l-0.1-78L237.5,105.9z"/>
<g>
	<path class="st6" d="M93.2,326.8v-9.6c1.6,1.5,3.4,2.6,5.3,3.3c1.9,0.7,3.8,1.1,5.7,1.1c1.1,0,2.1-0.1,3-0.3
		c0.8-0.2,1.6-0.5,2.1-0.9c0.6-0.4,1-0.9,1.3-1.4c0.3-0.5,0.4-1.1,0.4-1.7c0-0.8-0.2-1.6-0.7-2.3c-0.4-0.7-1.1-1.3-1.8-1.8
		c-0.8-0.6-1.7-1.1-2.7-1.6c-1.1-0.5-2.2-1.1-3.4-1.6c-3.1-1.4-5.4-3.1-7-5.2c-1.5-2-2.3-4.5-2.3-7.3c0-2.2,0.4-4.2,1.3-5.8
		c0.8-1.6,2-2.9,3.4-4s3.1-1.8,5-2.3c1.9-0.5,3.9-0.7,6-0.7c2.1,0,3.9,0.1,5.5,0.4c1.6,0.3,3.1,0.7,4.4,1.2v9
		c-0.7-0.5-1.4-0.9-2.2-1.3c-0.8-0.4-1.6-0.7-2.4-0.9c-0.8-0.2-1.7-0.4-2.5-0.6c-0.8-0.1-1.6-0.2-2.4-0.2c-1,0-1.9,0.1-2.8,0.3
		c-0.8,0.2-1.5,0.5-2.1,0.9c-0.6,0.4-1,0.8-1.3,1.4c-0.3,0.5-0.5,1.1-0.5,1.8c0,0.7,0.2,1.4,0.5,1.9c0.4,0.6,0.9,1.1,1.5,1.6
		c0.6,0.5,1.4,1,2.4,1.5c0.9,0.5,2,1,3.1,1.5c1.6,0.7,3,1.5,4.3,2.3c1.3,0.8,2.4,1.7,3.3,2.8c0.9,1,1.6,2.2,2.1,3.5
		c0.5,1.3,0.7,2.8,0.7,4.6c0,2.4-0.4,4.4-1.3,6.1c-0.8,1.6-2,3-3.4,4c-1.4,1-3.1,1.7-5.1,2.2c-1.9,0.4-4,0.7-6.1,0.7
		s-4.3-0.2-6.3-0.6C96.4,328.2,94.7,327.6,93.2,326.8L93.2,326.8z"/>
	<path class="st6" d="M159.6,309.7c0,13-5.6,19.5-16.8,19.5c-11.2,0-16.3-6.3-16.3-19v-24.9h9v25.1c0,7,2.5,10.5,7.6,10.5
		s7.4-3.4,7.4-10.1v-25.4h9V309.7L159.6,309.7z"/>
	<path class="st6" d="M168.3,328.4v-43.2h14.5c4.5,0,7.9,0.9,10.3,2.7c2.4,1.8,3.6,4.3,3.6,7.5c0,2.3-0.7,4.4-2.2,6.1
		c-1.5,1.7-3.3,3-5.6,3.6v0.1c2.8,0.4,5.1,1.5,6.8,3.4c1.7,1.9,2.6,4.2,2.6,6.9c0,4-1.3,7.1-3.9,9.4c-2.6,2.3-6.2,3.5-10.7,3.5
		H168.3L168.3,328.4z M177.3,292.4v10.2h4c1.9,0,3.3-0.5,4.4-1.5s1.6-2.3,1.6-4c0-3.2-2.2-4.8-6.6-4.8H177.3L177.3,292.4z
		 M177.3,309.9v11.4h4.9c2.1,0,3.7-0.5,4.9-1.6c1.2-1,1.8-2.5,1.8-4.3c0-1.8-0.6-3.1-1.7-4.1c-1.2-1-2.8-1.5-4.9-1.5H177.3
		L177.3,309.9z"/>
	<path class="st6" d="M228.7,328.4h-23.8v-43.2h9v35.3h14.8V328.4L228.7,328.4z"/>
	<path class="st6" d="M246.4,285.2v7.5h-3.3v28.1h3.3v7.5h-15.7v-7.5h3.3v-28.1h-3.3v-7.5H246.4z"/>
	<path class="st6" d="M266.8,315.3h-15.2v-6.7h15.2V315.3z"/>
	<path class="st6" d="M310.4,328.4h-9.8l-2.8-9.6h-14.2l-2.8,9.6H271l14.5-43.2h10.7L310.4,328.4z M295.7,311.4l-4.3-14.5
		c-0.3-1.1-0.5-2.4-0.7-3.9h-0.2c-0.1,1.3-0.3,2.5-0.7,3.8l-4.3,14.6H295.7L295.7,311.4z"/>
	<path class="st6" d="M348.9,328.4h-10.3l-6.2-11.1c-0.5-0.8-0.9-1.6-1.3-2.3c-0.4-0.7-0.9-1.2-1.3-1.7c-0.4-0.5-0.9-0.8-1.4-1.1
		s-1-0.4-1.5-0.4h-2.4v16.5h-9v-43.2h14.3c9.7,0,14.5,3.9,14.5,11.8c0,1.5-0.2,2.9-0.6,4.2s-1,2.4-1.8,3.4c-0.8,1-1.7,1.9-2.8,2.7
		c-1.1,0.7-2.3,1.3-3.7,1.7v0.1c0.6,0.2,1.2,0.5,1.7,1c0.6,0.5,1.1,1,1.6,1.6c0.5,0.6,1,1.2,1.5,1.9s0.9,1.4,1.3,2L348.9,328.4
		L348.9,328.4z M324.4,292.5v12h3.9c1.9,0,3.5-0.6,4.7-1.8c1.2-1.2,1.8-2.7,1.8-4.5c0-3.8-2.1-5.7-6.3-5.7H324.4z"/>
	<path class="st6" d="M380.7,293.2h-11.4v35.3h-9v-35.3h-11.3v-7.9h31.8V293.2z"/>
</g>
<polygon class="st7" points="105.8,348.6 105.9,380.5 235.7,457.5 235.9,427.4 "/>
<linearGradient id="SVGID_00000141453110762876475310000002325048386618136214_" gradientUnits="userSpaceOnUse" x1="105.9251" y1="403.3948" x2="235.7805" y2="403.3948">
	<stop  offset="0" style="stop-color:#4689D5"/>
	<stop  offset="1" style="stop-color:#46BDD5"/>
</linearGradient>
<polygon style="fill:url(#SVGID_00000141453110762876475310000002325048386618136214_);" points="105.9,348.9 105.9,380.9 
	235.8,457.9 235.8,427.7 "/>
<linearGradient id="SVGID_00000174568034041493120830000010215574616305288618_" gradientUnits="userSpaceOnUse" x1="239.2021" y1="177.3644" x2="369.0575" y2="177.3644" gradientTransform="matrix(1 0 0 -1 0 589.89)">
	<stop  offset="0" style="stop-color:#921634"/>
	<stop  offset="1" style="stop-color:#E71D83"/>
</linearGradient>
<polygon style="fill:url(#SVGID_00000174568034041493120830000010215574616305288618_);" points="338.5,367.1 369.1,381 239.2,458 
	239.2,427.8 "/>
<linearGradient id="SVGID_00000155849254299517919630000012771257950141945019_" gradientUnits="userSpaceOnUse" x1="372.864" y1="378.3979" x2="343.8826" y2="317.2122" gradientTransform="matrix(1 0 0 -1 0 589.89)">
	<stop  offset="0" style="stop-color:#921634"/>
	<stop  offset="0.57" style="stop-color:#E71D83"/>
	<stop  offset="1" style="stop-color:#E71D83"/>
</linearGradient>
<polygon style="fill:url(#SVGID_00000155849254299517919630000012771257950141945019_);" points="338.1,275.7 368.9,275.7 
	368.4,209.9 338.2,228.7 "/>
<linearGradient id="SVGID_00000173849102986321141820000013341188604177373090_" gradientUnits="userSpaceOnUse" x1="307.3274" y1="425.9804" x2="289.2902" y2="387.8939" gradientTransform="matrix(1 0 0 -1 0 589.89)">
	<stop  offset="0" style="stop-color:#921634"/>
	<stop  offset="0.57" style="stop-color:#E71D83"/>
	<stop  offset="1" style="stop-color:#E71D83"/>
</linearGradient>
<polygon style="fill:url(#SVGID_00000173849102986321141820000013341188604177373090_);" points="239.5,170.3 239.5,132.1 
	368.4,209.9 338.2,228.7 "/>
<linearGradient id="SVGID_00000067927901620552518560000015746883777562184590_" gradientUnits="userSpaceOnUse" x1="115.1982" y1="180.8542" x2="242.3448" y2="180.8542">
	<stop  offset="4.361545e-02" style="stop-color:#FCC450"/>
	<stop  offset="0.2632" style="stop-color:#FCCC45"/>
	<stop  offset="0.6533" style="stop-color:#FBE026"/>
	<stop  offset="0.7886" style="stop-color:#FBE81A"/>
</linearGradient>
<polygon style="fill:url(#SVGID_00000067927901620552518560000015746883777562184590_);" points="235.6,170.1 235.5,132.6 
	106.1,210.4 136.2,229.1 "/>
<polygon class="st6" points="154.7,341.6 171.9,341.5 234.6,379.1 234.6,403.4 154.7,355.9 "/>
<polygon class="st6" points="320.1,341.6 302.9,341.5 240.2,379.1 240.2,403.4 320.1,355.9 "/>
<linearGradient id="SVGID_00000080206984143393040680000003031661206816609450_" gradientUnits="userSpaceOnUse" x1="171.878" y1="360.3297" x2="234.6271" y2="360.3297">
	<stop  offset="0" style="stop-color:#4689D5"/>
	<stop  offset="1" style="stop-color:#46BDD5"/>
</linearGradient>
<polygon style="fill:url(#SVGID_00000080206984143393040680000003031661206816609450_);" points="234.6,379.1 234.6,341.5 
	171.9,341.5 "/>
<linearGradient id="SVGID_00000149374981789146232160000003972442413622900400_" gradientUnits="userSpaceOnUse" x1="240.1696" y1="360.3297" x2="302.9188" y2="360.3297">
	<stop  offset="0" style="stop-color:#46BDD5"/>
	<stop  offset="1" style="stop-color:#4689D5"/>
</linearGradient>
<polygon style="fill:url(#SVGID_00000149374981789146232160000003972442413622900400_);" points="240.2,379.1 240.2,341.5 
	302.9,341.5 "/>
<linearGradient id="SVGID_00000027593585425543033480000002464170615929259941_" gradientUnits="userSpaceOnUse" x1="106.0853" y1="242.9466" x2="136.2392" y2="242.9466">
	<stop  offset="0" style="stop-color:#FCC450"/>
	<stop  offset="0.5559" style="stop-color:#FDE00D"/>
	<stop  offset="1" style="stop-color:#FBE81A"/>
</linearGradient>
<polygon style="fill:url(#SVGID_00000027593585425543033480000002464170615929259941_);" points="136.2,275.5 106.3,275.5 
	106.1,210.4 136.2,229.1 "/>
<polygon class="st6" points="234,238 171.4,275.7 154.9,275.7 154.9,257.9 234,210.4 "/>
<linearGradient id="SVGID_00000059301506030274497040000006360689446440635561_" gradientUnits="userSpaceOnUse" x1="171.4166" y1="256.8574" x2="233.9928" y2="256.8574">
	<stop  offset="0" style="stop-color:#205C63"/>
	<stop  offset="1" style="stop-color:#003C63"/>
</linearGradient>
<polygon style="fill:url(#SVGID_00000059301506030274497040000006360689446440635561_);" points="171.4,275.7 233.7,275.7 234,238 
	"/>
<polygon class="st17" points="154.9,257.9 154.9,240.1 234,193 234,210.4 "/>
<polygon class="st6" points="241.8,238 304.4,275.7 320.9,275.7 320.9,257.9 241.8,210.4 "/>
<linearGradient id="SVGID_00000000198545789473094540000008376765058133583262_" gradientUnits="userSpaceOnUse" x1="241.7999" y1="256.8574" x2="304.376" y2="256.8574">
	<stop  offset="0" style="stop-color:#003C63"/>
	<stop  offset="1" style="stop-color:#205C63"/>
</linearGradient>
<polygon style="fill:url(#SVGID_00000000198545789473094540000008376765058133583262_);" points="304.4,275.7 242.1,275.7 
	241.8,238 "/>
<polygon class="st17" points="320.9,257.9 320.9,240.1 241.8,193 241.8,210.4 "/>
</svg>
